<svg version="1.1" viewBox="0.0 0.0 960.0 960.0" fill="none" stroke="none" stroke-linecap="square" stroke-miterlimit="10" xmlns:xlink="http://www.w3.org/1999/xlink" xmlns="http://www.w3.org/2000/svg"><clipPath id="p.0"><path d="m0 0l960.0 0l0 960.0l-960.0 0l0 -960.0z" clip-rule="nonzero"/></clipPath><g clip-path="url(#p.0)"><path fill="#000000" fill-opacity="0.0" d="m0 0l960.0 0l0 960.0l-960.0 0z" fill-rule="evenodd"/><defs><linearGradient id="p.1" gradientUnits="userSpaceOnUse" gradientTransform="matrix(36.84623481280491 0.0 0.0 36.84623481280491 0.0 0.0)" spreadMethod="pad" x1="-13.027111248642129" y1="13.027064501913362" x2="13.027064501913362" y2="39.081333745926386"><stop offset="0.0" stop-color="#ff0000"/><stop offset="0.21" stop-color="#ff9900"/><stop offset="0.37" stop-color="#ffff00"/><stop offset="0.51" stop-color="#00ff00"/><stop offset="0.6" stop-color="#00ffff"/><stop offset="0.69" stop-color="#4d80ff"/><stop offset="0.79" stop-color="#0000ff"/><stop offset="1.0" stop-color="#9900ff"/></linearGradient></defs><path fill="url(#p.1)" d="m0 480.0l0 0c0 -265.09668 214.90332 -480.0 480.0 -480.0l0 0c127.303894 0 249.3938 50.571285 339.41125 140.58875c90.017456 90.017456 140.58875 212.10733 140.58875 339.41125l0 0c0 265.09668 -214.90332 480.0 -480.0 480.0l0 0c-265.09668 0 -480.0 -214.90332 -480.0 -480.0zm240.0 0l0 0c0 132.54834 107.45166 240.0 240.0 240.0c132.54834 0 240.0 -107.45166 240.0 -240.0c0 -132.54834 -107.45166 -240.0 -240.0 -240.0l0 0c-132.54834 0 -240.0 107.45166 -240.0 240.0z" fill-rule="evenodd"/><defs><linearGradient id="p.2" gradientUnits="userSpaceOnUse" gradientTransform="matrix(13.00030725861336 13.000307257857841 -13.000307257857841 13.00030725861336 0.0 0.0)" spreadMethod="pad" x1="35.536801220548874" y1="-26.067426177114946" x2="35.53675437743786" y2="-13.067118918585983"><stop offset="0.0" stop-color="#4d4d4d"/><stop offset="1.0" stop-color="#000000"/></linearGradient></defs><path fill="url(#p.2)" d="m800.8738 123.10492l39.433044 39.433075l-169.00787 169.00787l-39.433044 -39.433075z" fill-rule="evenodd"/><path fill="#434343" d="m793.8084 142.54068l0 0c0 -15.290024 12.39502 -27.685036 27.684998 -27.685036l0 0c7.3425293 0 14.384338 2.916809 19.576294 8.108757c5.1919556 5.1919556 8.108765 12.233749 8.108765 19.576279l0 0c0 15.290024 -12.39502 27.685043 -27.685059 27.685043l0 0c-15.289978 0 -27.684998 -12.39502 -27.684998 -27.685043z" fill-rule="evenodd"/><path fill="#000000" d="m625.8084 310.54068l0 0c0 -15.290009 12.39502 -27.685028 27.684998 -27.685028l0 0c7.3425293 0 14.384338 2.916809 19.576294 8.108765c5.1919556 5.191925 8.108765 12.233734 8.108765 19.576263l0 0c0 15.290039 -12.39502 27.685028 -27.685059 27.685028l0 0c-15.289978 0 -27.684998 -12.394989 -27.684998 -27.685028z" fill-rule="evenodd"/></g></svg>